<svg width="32" height="32" viewBox="0 0 32 32" fill="none" xmlns="http://www.w3.org/2000/svg">
  <defs>
    <linearGradient id="brainGradient" x1="0%" y1="0%" x2="100%" y2="100%">
      <stop offset="0%" style="stop-color:#3B82F6;stop-opacity:1" />
      <stop offset="50%" style="stop-color:#8B5CF6;stop-opacity:1" />
      <stop offset="100%" style="stop-color:#EC4899;stop-opacity:1" />
    </linearGradient>
  </defs>
  
  <!-- Background Circle -->
  <circle cx="16" cy="16" r="15" fill="url(#brainGradient)" stroke="#ffffff" stroke-width="2"/>
  
  <!-- Brain Icon -->
  <path d="M12 8c-1.1 0-2 .9-2 2 0 .74.4 1.38 1 1.73v.27c0 1.1.9 2 2 2h2c1.1 0 2-.9 2-2v-.27c.6-.35 1-.99 1-1.73 0-1.1-.9-2-2-2-.74 0-1.38.4-1.73 1H13.73c-.35-.6-.99-1-1.73-1z" fill="white"/>
  <path d="M10 14c-.55 0-1 .45-1 1s.45 1 1 1h1v2c0 1.1.9 2 2 2h2c1.1 0 2-.9 2-2v-2h1c.55 0 1-.45 1-1s-.45-1-1-1h-1v-1h-2v1h-2v1h-1z" fill="white" opacity="0.8"/>
  
  <!-- Sparkle Effects -->
  <circle cx="8" cy="10" r="1" fill="#FCD34D"/>
  <circle cx="24" cy="12" r="1" fill="#FCD34D"/>
  <circle cx="22" cy="22" r="1" fill="#FCD34D"/>
</svg>